<svg xmlns="http://www.w3.org/2000/svg" width="920" height="420" viewBox="0 0 920 420" role="img" aria-labelledby="title desc">
<title id="title">Sherlock Holmes rewrite experiment</title>
<desc id="desc">50 recorded rewrite attempts; gpt-5.6-sol; three training and three held-out passages.. Candidate drafts include rejected attempts. Retained drafts are selected using training measurements, not held-out results. Lower distance is not a percentage voice match.</desc>
<rect width="100%" height="100%" fill="#ffffff"/>
<g font-family="Arial, sans-serif" fill="#20252b">
<text x="64" y="38" font-size="22" font-weight="700">Sherlock Holmes rewrite experiment</text>
<text x="64" y="62" font-size="12" fill="#53616f">50 recorded rewrite attempts; gpt-5.6-sol; three training and three held-out passages.</text>
<text x="64" y="82" font-size="12" fill="#53616f">Recorded outputs and measured scores; no benchmark copying or forced alignment.</text>
<text x="64" y="128" font-size="17" font-weight="700">Function word &quot;it&quot;</text>
<text x="64" y="148" font-size="12" fill="#53616f">occurrences per 1k words</text>
<line x1="64" y1="296.00" x2="856" y2="296.00" stroke="#e6e9ed"/>
<text x="56" y="300.00" font-size="10" text-anchor="end" fill="#53616f">9.035</text>
<line x1="64" y1="250.00" x2="856" y2="250.00" stroke="#e6e9ed"/>
<text x="56" y="254.00" font-size="10" text-anchor="end" fill="#53616f">17.67</text>
<line x1="64" y1="204.00" x2="856" y2="204.00" stroke="#e6e9ed"/>
<text x="56" y="208.00" font-size="10" text-anchor="end" fill="#53616f">26.31</text>
<line x1="64" y1="158.00" x2="856" y2="158.00" stroke="#e6e9ed"/>
<text x="56" y="162.00" font-size="10" text-anchor="end" fill="#53616f">34.95</text>
<polyline data-series-id="candidate" points="64.00,198.77 79.84,217.54 95.68,228.13 111.52,251.40 127.36,240.10 143.20,266.37 159.04,251.04 174.88,210.49 190.72,244.38 206.56,275.96 222.40,234.82 238.24,219.59 254.08,227.28 269.92,250.02 285.76,284.50 301.60,261.55 317.44,207.29 333.28,223.53 349.12,231.24 364.96,245.67 380.80,257.44 396.64,235.02 412.48,283.71 428.32,265.36 444.16,216.61 460.00,228.11 475.84,237.99 491.68,243.06 507.52,226.95 523.36,247.46 539.20,246.57 555.04,233.79 570.88,245.67 586.72,262.50 602.56,221.45 618.40,266.37 634.24,209.16 650.08,205.92 665.92,239.32 681.76,206.30 697.60,232.10 713.44,218.06 729.28,220.26 745.12,235.22 760.96,208.09 776.80,242.67 792.64,253.34 808.48,222.15 824.32,245.12 840.16,226.42 856.00,236.03" fill="none" stroke="#8b949e" stroke-width="1.25" stroke-dasharray="none" stroke-linejoin="round"><title>Every candidate draft: 27.2904 to 20.2952</title></polyline>
<polyline data-series-id="base" points="64.00,198.77 79.84,198.77 95.68,198.77 111.52,198.77 127.36,198.77 143.20,198.77 159.04,198.77 174.88,198.77 190.72,198.77 206.56,198.77 222.40,198.77 238.24,198.77 254.08,198.77 269.92,198.77 285.76,198.77 301.60,198.77 317.44,198.77 333.28,198.77 349.12,198.77 364.96,198.77 380.80,198.77 396.64,198.77 412.48,198.77 428.32,198.77 444.16,198.77 460.00,198.77 475.84,198.77 491.68,198.77 507.52,198.77 523.36,198.77 539.20,198.77 555.04,198.77 570.88,198.77 586.72,198.77 602.56,198.77 618.40,198.77 634.24,198.77 650.08,198.77 665.92,198.77 681.76,198.77 697.60,198.77 713.44,198.77 729.28,198.77 745.12,198.77 760.96,198.77 776.80,198.77 792.64,198.77 808.48,198.77 824.32,198.77 840.16,198.77 856.00,198.77" fill="none" stroke="#d55e00" stroke-width="2.3" stroke-dasharray="4 4" stroke-linejoin="round"><title>Base prompt only: 27.2904 to 27.2904</title></polyline>
<polyline data-series-id="style" points="64.00,169.50 79.84,169.50 95.68,169.50 111.52,169.50 127.36,169.50 143.20,169.50 159.04,169.50 174.88,169.50 190.72,169.50 206.56,169.50 222.40,169.50 238.24,169.50 254.08,169.50 269.92,169.50 285.76,169.50 301.60,169.50 317.44,169.50 333.28,169.50 349.12,169.50 364.96,169.50 380.80,169.50 396.64,169.50 412.48,169.50 428.32,169.50 444.16,169.50 460.00,169.50 475.84,169.50 491.68,169.50 507.52,169.50 523.36,169.50 539.20,169.50 555.04,169.50 570.88,169.50 586.72,169.50 602.56,169.50 618.40,169.50 634.24,169.50 650.08,169.50 665.92,169.50 681.76,169.50 697.60,169.50 713.44,169.50 729.28,169.50 745.12,169.50 760.96,169.50 776.80,169.50 792.64,169.50 808.48,169.50 824.32,169.50 840.16,169.50 856.00,169.50" fill="none" stroke="#7c3aed" stroke-width="2.3" stroke-dasharray="4 4" stroke-linejoin="round"><title>Base + explicit style prompt: 32.7869 to 32.7869</title></polyline>
<polyline data-series-id="benchmark" points="64.00,281.68 79.84,281.68 95.68,281.68 111.52,281.68 127.36,281.68 143.20,281.68 159.04,281.68 174.88,281.68 190.72,281.68 206.56,281.68 222.40,281.68 238.24,281.68 254.08,281.68 269.92,281.68 285.76,281.68 301.60,281.68 317.44,281.68 333.28,281.68 349.12,281.68 364.96,281.68 380.80,281.68 396.64,281.68 412.48,281.68 428.32,281.68 444.16,281.68 460.00,281.68 475.84,281.68 491.68,281.68 507.52,281.68 523.36,281.68 539.20,281.68 555.04,281.68 570.88,281.68 586.72,281.68 602.56,281.68 618.40,281.68 634.24,281.68 650.08,281.68 665.92,281.68 681.76,281.68 697.60,281.68 713.44,281.68 729.28,281.68 745.12,281.68 760.96,281.68 776.80,281.68 792.64,281.68 808.48,281.68 824.32,281.68 840.16,281.68 856.00,281.68" fill="none" stroke="#00856a" stroke-width="2.3" stroke-dasharray="4 4" stroke-linejoin="round"><title>Author profile reference: 11.7233 to 11.7233</title></polyline>
<polyline data-series-id="retained" points="64.00,198.77 79.84,217.54 95.68,217.54 111.52,217.54 127.36,217.54 143.20,217.54 159.04,217.54 174.88,217.54 190.72,217.54 206.56,217.54 222.40,217.54 238.24,217.54 254.08,217.54 269.92,217.54 285.76,217.54 301.60,217.54 317.44,217.54 333.28,217.54 349.12,217.54 364.96,217.54 380.80,217.54 396.64,217.54 412.48,217.54 428.32,217.54 444.16,217.54 460.00,217.54 475.84,217.54 491.68,217.54 507.52,217.54 523.36,217.54 539.20,217.54 555.04,217.54 570.88,217.54 586.72,217.54 602.56,217.54 618.40,266.37 634.24,266.37 650.08,266.37 665.92,266.37 681.76,266.37 697.60,266.37 713.44,266.37 729.28,266.37 745.12,266.37 760.96,266.37 776.80,266.37 792.64,266.37 808.48,266.37 824.32,266.37 840.16,266.37 856.00,266.37" fill="none" stroke="#2563eb" stroke-width="2.3" stroke-dasharray="none" stroke-linejoin="round"><title>Salix retained draft: 27.2904 to 14.5985</title></polyline>
<text x="64.00" y="314" font-size="10" text-anchor="middle" fill="#53616f">0</text>
<text x="143.20" y="314" font-size="10" text-anchor="middle" fill="#53616f">5</text>
<text x="222.40" y="314" font-size="10" text-anchor="middle" fill="#53616f">10</text>
<text x="301.60" y="314" font-size="10" text-anchor="middle" fill="#53616f">15</text>
<text x="380.80" y="314" font-size="10" text-anchor="middle" fill="#53616f">20</text>
<text x="460.00" y="314" font-size="10" text-anchor="middle" fill="#53616f">25</text>
<text x="539.20" y="314" font-size="10" text-anchor="middle" fill="#53616f">30</text>
<text x="618.40" y="314" font-size="10" text-anchor="middle" fill="#53616f">35</text>
<text x="697.60" y="314" font-size="10" text-anchor="middle" fill="#53616f">40</text>
<text x="776.80" y="314" font-size="10" text-anchor="middle" fill="#53616f">45</text>
<text x="856.00" y="314" font-size="10" text-anchor="middle" fill="#53616f">50</text>
<line x1="64" y1="330" x2="79" y2="330" stroke="#8b949e" stroke-width="2"/>
<text x="86" y="334" font-size="11">Every candidate draft</text>
<line x1="334" y1="330" x2="349" y2="330" stroke="#d55e00" stroke-width="2"/>
<text x="356" y="334" font-size="11">Base prompt only</text>
<line x1="604" y1="330" x2="619" y2="330" stroke="#7c3aed" stroke-width="2"/>
<text x="626" y="334" font-size="11">Base + explicit style prompt</text>
<line x1="64" y1="352" x2="79" y2="352" stroke="#00856a" stroke-width="2"/>
<text x="86" y="356" font-size="11">Author profile reference</text>
<line x1="334" y1="352" x2="349" y2="352" stroke="#2563eb" stroke-width="2"/>
<text x="356" y="356" font-size="11">Salix retained draft</text>
<text x="460.0" y="381" font-size="11" text-anchor="middle" fill="#53616f">Attempted rewrite</text>
</g>
</svg>
