<svg xmlns="http://www.w3.org/2000/svg" width="920" height="360" viewBox="0 0 920 360" role="img" aria-labelledby="title desc">
<title id="title">Validated Sherlock Holmes Salix convergence</title>
<desc id="desc">Measured chart lines show recursive Baker Street drafts converging toward a public-domain Sherlock Holmes benchmark style profile.</desc>
<rect width="100%" height="100%" fill="#fbfaf7"/>
<text x="40" y="38" font-family="Arial, sans-serif" font-size="22" font-weight="700" fill="#1f2933">Validated Sherlock Holmes fixture</text>
<text x="40" y="64" font-family="Arial, sans-serif" font-size="13" fill="#52616b">Generated from scripts/demo_convergence.py; tested for decreasing total distance and feature convergence.</text>
<text x="64" y="106" font-family="Arial, sans-serif" font-size="17" font-weight="700" fill="#1f2933">Yule's K convergence</text>
<text x="64" y="126" font-family="Arial, sans-serif" font-size="12" fill="#52616b">measured score</text>
<line x1="64" y1="274" x2="856" y2="274" stroke="#c9d1d9" stroke-width="1"/>
<line x1="64" y1="136" x2="64" y2="274" stroke="#c9d1d9" stroke-width="1"/>
<polyline points="64.0,201.6 79.8,201.6 95.7,201.6 111.5,201.6 127.4,201.6 143.2,201.6 159.0,201.6 174.9,201.6 190.7,201.6 206.6,201.6 222.4,201.6 238.2,201.6 254.1,201.6 269.9,201.6 285.8,201.6 301.6,201.6 317.4,201.6 333.3,201.6 349.1,201.6 365.0,201.6 380.8,201.6 396.6,201.6 412.5,201.6 428.3,201.6 444.2,201.6 460.0,201.6 475.8,201.6 491.7,201.6 507.5,201.6 523.4,201.6 539.2,201.6 555.0,201.6 570.9,201.6 586.7,201.6 602.6,201.6 618.4,201.6 634.2,201.6 650.1,201.6 665.9,201.6 681.8,201.6 697.6,201.6 713.4,201.6 729.3,201.6 745.1,201.6 761.0,201.6 776.8,201.6 792.6,201.6 808.5,201.6 824.3,201.6 840.2,201.6 856.0,201.6" fill="none" stroke="#64748b" stroke-width="3" stroke-linecap="round" stroke-linejoin="round"/>
<polyline points="64.0,260.6 79.8,260.6 95.7,260.6 111.5,260.6 127.4,260.6 143.2,260.6 159.0,260.6 174.9,260.6 190.7,260.6 206.6,260.6 222.4,260.6 238.2,260.6 254.1,260.6 269.9,260.6 285.8,260.6 301.6,260.6 317.4,260.6 333.3,260.6 349.1,260.6 365.0,260.6 380.8,260.6 396.6,260.6 412.5,260.6 428.3,260.6 444.2,260.6 460.0,260.6 475.8,260.6 491.7,260.6 507.5,260.6 523.4,260.6 539.2,260.6 555.0,260.6 570.9,260.6 586.7,260.6 602.6,260.6 618.4,260.6 634.2,260.6 650.1,260.6 665.9,260.6 681.8,260.6 697.6,260.6 713.4,260.6 729.3,260.6 745.1,260.6 761.0,260.6 776.8,260.6 792.6,260.6 808.5,260.6 824.3,260.6 840.2,260.6 856.0,260.6" fill="none" stroke="#7c3aed" stroke-width="3" stroke-linecap="round" stroke-linejoin="round"/>
<polyline points="64.0,149.4 79.8,152.9 95.7,162.1 111.5,189.0 127.4,206.7 143.2,195.0 159.0,202.1 174.9,222.5 190.7,226.1 206.6,231.6 222.4,235.2 238.2,231.6 254.1,235.6 269.9,241.0 285.8,242.5 301.6,242.5 317.4,251.5 333.3,253.7 349.1,254.7 365.0,250.0 380.8,251.9 396.6,252.9 412.5,254.8 428.3,258.3 444.2,256.0 460.0,257.7 475.8,254.7 491.7,260.0 507.5,258.1 523.4,253.9 539.2,258.1 555.0,257.7 570.9,252.9 586.7,255.1 602.6,258.2 618.4,258.7 634.2,256.3 650.1,256.3 665.9,257.6 681.8,257.4 697.6,259.3 713.4,257.5 729.3,257.3 745.1,257.3 761.0,258.3 776.8,254.3 792.6,258.6 808.5,259.5 824.3,258.5 840.2,259.3 856.0,243.2" fill="none" stroke="#2563eb" stroke-width="3" stroke-linecap="round" stroke-linejoin="round"/>
<polyline points="64.0,243.2 79.8,243.2 95.7,243.2 111.5,243.2 127.4,243.2 143.2,243.2 159.0,243.2 174.9,243.2 190.7,243.2 206.6,243.2 222.4,243.2 238.2,243.2 254.1,243.2 269.9,243.2 285.8,243.2 301.6,243.2 317.4,243.2 333.3,243.2 349.1,243.2 365.0,243.2 380.8,243.2 396.6,243.2 412.5,243.2 428.3,243.2 444.2,243.2 460.0,243.2 475.8,243.2 491.7,243.2 507.5,243.2 523.4,243.2 539.2,243.2 555.0,243.2 570.9,243.2 586.7,243.2 602.6,243.2 618.4,243.2 634.2,243.2 650.1,243.2 665.9,243.2 681.8,243.2 697.6,243.2 713.4,243.2 729.3,243.2 745.1,243.2 761.0,243.2 776.8,243.2 792.6,243.2 808.5,243.2 824.3,243.2 840.2,243.2 856.0,243.2" fill="none" stroke="#b45309" stroke-width="3" stroke-linecap="round" stroke-linejoin="round"/>
<circle cx="64" cy="305" r="4" fill="#64748b"/>
<text x="74" y="309" font-family="Arial, sans-serif" font-size="11" fill="#1f2933">Base prompt only</text>
<circle cx="252" cy="305" r="4" fill="#7c3aed"/>
<text x="262" y="309" font-family="Arial, sans-serif" font-size="11" fill="#1f2933">Prompt plus "write in the style of Sherlock Holmes"</text>
<circle cx="538" cy="305" r="4" fill="#2563eb"/>
<text x="548" y="309" font-family="Arial, sans-serif" font-size="11" fill="#1f2933">Base prompt plus Salix</text>
<circle cx="726" cy="305" r="4" fill="#b45309"/>
<text x="736" y="309" font-family="Arial, sans-serif" font-size="11" fill="#1f2933">Benchmark</text>
<text x="64.0" y="292" font-family="Arial, sans-serif" font-size="11" text-anchor="middle" fill="#52616b">0</text>
<text x="143.2" y="292" font-family="Arial, sans-serif" font-size="11" text-anchor="middle" fill="#52616b">5</text>
<text x="222.4" y="292" font-family="Arial, sans-serif" font-size="11" text-anchor="middle" fill="#52616b">10</text>
<text x="301.6" y="292" font-family="Arial, sans-serif" font-size="11" text-anchor="middle" fill="#52616b">15</text>
<text x="380.8" y="292" font-family="Arial, sans-serif" font-size="11" text-anchor="middle" fill="#52616b">20</text>
<text x="460.0" y="292" font-family="Arial, sans-serif" font-size="11" text-anchor="middle" fill="#52616b">25</text>
<text x="539.2" y="292" font-family="Arial, sans-serif" font-size="11" text-anchor="middle" fill="#52616b">30</text>
<text x="618.4" y="292" font-family="Arial, sans-serif" font-size="11" text-anchor="middle" fill="#52616b">35</text>
<text x="697.6" y="292" font-family="Arial, sans-serif" font-size="11" text-anchor="middle" fill="#52616b">40</text>
<text x="776.8" y="292" font-family="Arial, sans-serif" font-size="11" text-anchor="middle" fill="#52616b">45</text>
<text x="856.0" y="292" font-family="Arial, sans-serif" font-size="11" text-anchor="middle" fill="#52616b">50</text>
</svg>
