<svg xmlns="http://www.w3.org/2000/svg" width="920" height="360" viewBox="0 0 920 360" role="img" aria-labelledby="title desc">
<title id="title">Validated Sherlock Holmes Salix convergence</title>
<desc id="desc">Measured chart lines show recursive Baker Street drafts converging toward a public-domain Sherlock Holmes benchmark style profile.</desc>
<rect width="100%" height="100%" fill="#fbfaf7"/>
<text x="40" y="38" font-family="Arial, sans-serif" font-size="22" font-weight="700" fill="#1f2933">Validated Sherlock Holmes fixture</text>
<text x="40" y="64" font-family="Arial, sans-serif" font-size="13" fill="#52616b">Generated from scripts/demo_convergence.py; tested for decreasing total distance and feature convergence.</text>
<text x="64" y="106" font-family="Arial, sans-serif" font-size="17" font-weight="700" fill="#1f2933">Honore's R convergence</text>
<text x="64" y="126" font-family="Arial, sans-serif" font-size="12" fill="#52616b">measured score</text>
<line x1="64" y1="274" x2="856" y2="274" stroke="#c9d1d9" stroke-width="1"/>
<line x1="64" y1="136" x2="64" y2="274" stroke="#c9d1d9" stroke-width="1"/>
<polyline points="64.0,260.6 79.8,260.6 95.7,260.6 111.5,260.6 127.4,260.6 143.2,260.6 159.0,260.6 174.9,260.6 190.7,260.6 206.6,260.6 222.4,260.6 238.2,260.6 254.1,260.6 269.9,260.6 285.8,260.6 301.6,260.6 317.4,260.6 333.3,260.6 349.1,260.6 365.0,260.6 380.8,260.6 396.6,260.6 412.5,260.6 428.3,260.6 444.2,260.6 460.0,260.6 475.8,260.6 491.7,260.6 507.5,260.6 523.4,260.6 539.2,260.6 555.0,260.6 570.9,260.6 586.7,260.6 602.6,260.6 618.4,260.6 634.2,260.6 650.1,260.6 665.9,260.6 681.8,260.6 697.6,260.6 713.4,260.6 729.3,260.6 745.1,260.6 761.0,260.6 776.8,260.6 792.6,260.6 808.5,260.6 824.3,260.6 840.2,260.6 856.0,260.6" fill="none" stroke="#64748b" stroke-width="3" stroke-linecap="round" stroke-linejoin="round"/>
<polyline points="64.0,260.6 79.8,260.6 95.7,260.6 111.5,260.6 127.4,260.6 143.2,260.6 159.0,260.6 174.9,260.6 190.7,260.6 206.6,260.6 222.4,260.6 238.2,260.6 254.1,260.6 269.9,260.6 285.8,260.6 301.6,260.6 317.4,260.6 333.3,260.6 349.1,260.6 365.0,260.6 380.8,260.6 396.6,260.6 412.5,260.6 428.3,260.6 444.2,260.6 460.0,260.6 475.8,260.6 491.7,260.6 507.5,260.6 523.4,260.6 539.2,260.6 555.0,260.6 570.9,260.6 586.7,260.6 602.6,260.6 618.4,260.6 634.2,260.6 650.1,260.6 665.9,260.6 681.8,260.6 697.6,260.6 713.4,260.6 729.3,260.6 745.1,260.6 761.0,260.6 776.8,260.6 792.6,260.6 808.5,260.6 824.3,260.6 840.2,260.6 856.0,260.6" fill="none" stroke="#7c3aed" stroke-width="3" stroke-linecap="round" stroke-linejoin="round"/>
<polyline points="64.0,260.6 79.8,260.6 95.7,223.1 111.5,223.9 127.4,221.6 143.2,218.8 159.0,220.5 174.9,217.1 190.7,209.1 206.6,206.7 222.4,200.2 238.2,198.2 254.1,193.7 269.9,197.0 285.8,195.7 301.6,182.1 317.4,179.4 333.3,184.8 349.1,193.5 365.0,191.5 380.8,195.3 396.6,189.2 412.5,182.3 428.3,187.2 444.2,187.0 460.0,184.7 475.8,185.5 491.7,183.3 507.5,179.6 523.4,178.0 539.2,174.3 555.0,171.9 570.9,167.7 586.7,175.6 602.6,168.9 618.4,173.5 634.2,176.4 650.1,176.4 665.9,176.1 681.8,170.8 697.6,174.0 713.4,177.9 729.3,177.8 745.1,177.8 761.0,170.9 776.8,166.3 792.6,163.0 808.5,154.3 824.3,152.8 840.2,149.4 856.0,235.1" fill="none" stroke="#2563eb" stroke-width="3" stroke-linecap="round" stroke-linejoin="round"/>
<polyline points="64.0,235.1 79.8,235.1 95.7,235.1 111.5,235.1 127.4,235.1 143.2,235.1 159.0,235.1 174.9,235.1 190.7,235.1 206.6,235.1 222.4,235.1 238.2,235.1 254.1,235.1 269.9,235.1 285.8,235.1 301.6,235.1 317.4,235.1 333.3,235.1 349.1,235.1 365.0,235.1 380.8,235.1 396.6,235.1 412.5,235.1 428.3,235.1 444.2,235.1 460.0,235.1 475.8,235.1 491.7,235.1 507.5,235.1 523.4,235.1 539.2,235.1 555.0,235.1 570.9,235.1 586.7,235.1 602.6,235.1 618.4,235.1 634.2,235.1 650.1,235.1 665.9,235.1 681.8,235.1 697.6,235.1 713.4,235.1 729.3,235.1 745.1,235.1 761.0,235.1 776.8,235.1 792.6,235.1 808.5,235.1 824.3,235.1 840.2,235.1 856.0,235.1" fill="none" stroke="#b45309" stroke-width="3" stroke-linecap="round" stroke-linejoin="round"/>
<circle cx="64" cy="305" r="4" fill="#64748b"/>
<text x="74" y="309" font-family="Arial, sans-serif" font-size="11" fill="#1f2933">Base prompt only</text>
<circle cx="252" cy="305" r="4" fill="#7c3aed"/>
<text x="262" y="309" font-family="Arial, sans-serif" font-size="11" fill="#1f2933">Prompt plus "write in the style of Sherlock Holmes"</text>
<circle cx="538" cy="305" r="4" fill="#2563eb"/>
<text x="548" y="309" font-family="Arial, sans-serif" font-size="11" fill="#1f2933">Base prompt plus Salix</text>
<circle cx="726" cy="305" r="4" fill="#b45309"/>
<text x="736" y="309" font-family="Arial, sans-serif" font-size="11" fill="#1f2933">Benchmark</text>
<text x="64.0" y="292" font-family="Arial, sans-serif" font-size="11" text-anchor="middle" fill="#52616b">0</text>
<text x="143.2" y="292" font-family="Arial, sans-serif" font-size="11" text-anchor="middle" fill="#52616b">5</text>
<text x="222.4" y="292" font-family="Arial, sans-serif" font-size="11" text-anchor="middle" fill="#52616b">10</text>
<text x="301.6" y="292" font-family="Arial, sans-serif" font-size="11" text-anchor="middle" fill="#52616b">15</text>
<text x="380.8" y="292" font-family="Arial, sans-serif" font-size="11" text-anchor="middle" fill="#52616b">20</text>
<text x="460.0" y="292" font-family="Arial, sans-serif" font-size="11" text-anchor="middle" fill="#52616b">25</text>
<text x="539.2" y="292" font-family="Arial, sans-serif" font-size="11" text-anchor="middle" fill="#52616b">30</text>
<text x="618.4" y="292" font-family="Arial, sans-serif" font-size="11" text-anchor="middle" fill="#52616b">35</text>
<text x="697.6" y="292" font-family="Arial, sans-serif" font-size="11" text-anchor="middle" fill="#52616b">40</text>
<text x="776.8" y="292" font-family="Arial, sans-serif" font-size="11" text-anchor="middle" fill="#52616b">45</text>
<text x="856.0" y="292" font-family="Arial, sans-serif" font-size="11" text-anchor="middle" fill="#52616b">50</text>
</svg>
